<?xml version="1.0" encoding="UTF-8" standalone="no"?>
<!-- Created with Inkscape (http://www.inkscape.org/) -->

<svg
   version="1.1"
   id="svg1"
   width="3754.8965"
   height="644.0791"
   viewBox="0 0 3754.8965 644.0791"
   sodipodi:docname="wellen.png"
   xmlns:inkscape="http://www.inkscape.org/namespaces/inkscape"
   xmlns:sodipodi="http://sodipodi.sourceforge.net/DTD/sodipodi-0.dtd"
   xmlns="http://www.w3.org/2000/svg"
   xmlns:svg="http://www.w3.org/2000/svg">
  <defs
     id="defs1" />
  <sodipodi:namedview
     id="namedview1"
     pagecolor="#ffffff"
     bordercolor="#000000"
     borderopacity="0.25"
     inkscape:showpageshadow="2"
     inkscape:pageopacity="0.0"
     inkscape:pagecheckerboard="0"
     inkscape:deskcolor="#d1d1d1">
    <inkscape:page
       x="0"
       y="0"
       width="3754.8965"
       height="644.0791"
       id="page2"
       margin="0"
       bleed="0" />
  </sodipodi:namedview>
  <g
     inkscape:groupmode="layer"
     inkscape:label="Image"
     id="g1"
     transform="translate(-13.061141,-1736.0264)">
    <g
       id="g2"
       transform="translate(-4.7547208,85.584906)">
      <path
         style="fill:#cfcfcf"
         d="m 1959.5,2293.9951 c -184.2028,-7.7489 -314.8639,-29.1235 -478,-78.1949 -57.49,-17.2931 -63.2196,-21.8575 -53.2349,-42.4091 3.8272,-7.8773 7.7965,-7.5378 -57.7651,-4.9415 -283.3661,11.2213 -526.62982,-5.3062 -752,-51.0915 -135.67747,-27.5637 -247.20047,-62.2592 -392.43094,-122.0877 -19.07456,-7.8578 -22.90923,-25.7165 -7.6915,-35.8205 12.38177,-8.221 27.00952,-9.1731 93.12244,-6.0614 192.07267,9.0404 391.32607,3.3962 650.5,-18.4265 93.4187,-7.8659 147,-13.7831 147,-16.2338 0,-1.163 -29.7585,-0.6393 -85,1.4959 -44.21798,1.7091 -231.35065,1.6938 -270.5,-0.022 -271.37542,-11.894 -471.59298,-46.1338 -678,-115.9466 -55.743795,-18.8542 -60.80266,-22.2766 -56.507271,-38.2285 4.761157,-17.6816 21.186398,-20.8631 90.659171,-17.5605 80.04728,3.8052 189.74757,5.3534 257.3481,3.632 168.3545,-4.2873 295.0674,-11.794 517,-30.6281 82.51573,-7.0026 128.0693,-11.0972 461.7765,-41.5075 168.0277,-15.3121 253.7676,-21.3137 363.2235,-25.4246 389.9188,-14.6445 710.0938,9.8512 986,75.4361 36.0207,8.5624 131.5816,34.4821 144.5,39.1939 16.9933,6.198 22.3169,24.6096 10.0576,34.7839 -5.5513,4.6072 -1.0879,5.8416 31.2243,8.6349 249.3368,21.5551 446.7858,60.5171 657.9732,129.8361 44.8418,14.7186 47.4505,15.7691 51.9837,20.9321 11.3992,12.983 3.5773,27.8456 -17.9477,34.1031 -13.9886,4.0666 -11.1189,5.3952 27.2089,12.5973 142.3336,26.7456 185.846,43.5828 169.4353,65.5631 -9.6282,12.8959 -23.251,15.5389 -67.1363,13.0254 -226.1188,-12.9508 -423.9689,7.6003 -796.799,82.7649 -49.4529,9.97 -122.8274,25.2757 -208.5,43.4925 -109.0299,23.1833 -141.1045,29.5171 -197.5,39.0003 -126.1783,21.2176 -232.0907,32.5012 -367.5,39.1525 -27.363,1.344 -147.3562,1.9984 -172.5,0.9407 z M 1668,2152.9898 c 67.7132,-3.3726 174.0374,-14.5881 280.5,-29.5882 128.5903,-18.1178 439.9084,-70.5064 448.5,-75.4736 8.2282,-4.757 -142.3895,16.1165 -416,57.652 -114.3466,17.3584 -185.5914,27.2285 -252,34.9118 -102.9813,11.9147 -107.7031,12.5672 -97.5,13.4746 3.3,0.2935 8.025,0.4348 10.5,0.3139 2.475,-0.1208 14.175,-0.7015 26,-1.2905 z"
         id="path8" />
      <path
         style="fill:#a6a6a6"
         d="m 1969,2289.0263 c -185.4925,-6.4289 -322.9934,-28.8817 -494,-80.6661 -51.785,-15.6816 -59.8843,-29.7253 -24.5,-42.4815 5.9158,-2.1327 6.9893,-2.1658 76.5,-2.3555 78.0931,-0.2131 119.7992,-2.122 198.5,-9.0851 137.2112,-12.1398 236.609,-25.7566 460,-63.0166 222.2763,-37.0741 433.5,-74.6666 433.5,-77.1521 0,-6.0912 -301.5518,34.7698 -669.5,90.7189 -152.4926,23.1875 -257.8103,35.8399 -395.5,47.5136 -16.775,1.4222 -41.75,3.7785 -55.5,5.2362 -18.1387,1.9229 -31.4656,2.7162 -48.5581,2.8904 -12.957,0.1321 -39.957,0.9482 -60,1.8137 -349.6254,15.0972 -647.5011,-11.9127 -903.3593,-81.9119 -79.68957,-21.802 -224.74965,-72.5662 -261.89634,-91.6514 -13.16041,-6.7616 -13.60136,-19.2531 -0.92322,-26.1534 11.39912,-6.2042 25.42968,-6.9213 83.23696,-4.2544 76.99592,3.5523 98.77188,4.0164 188,4.0066 96.7938,-0.01 114.56537,-0.4666 216,-5.5429 185.83301,-9.3001 335.1286,-22.1716 597.4694,-51.5108 41.7832,-4.6729 82.7332,-9.1702 91,-9.9942 16.1947,-1.6141 199.9733,-22.1444 272.0306,-30.3891 198.5925,-22.7228 287.2062,-32.4419 337.3119,-36.9964 183.374,-16.6683 339.639,-24.0532 508.1881,-24.0164 71.6441,0.016 105.3946,0.5162 202.5,3.0035 62.2675,1.5949 63.7438,-0.4718 5,-6.9997 -148.6305,-16.5168 -350.4982,-14.3191 -599.5,6.5267 -109.1942,9.1414 -265.8524,25.4479 -403.5,42.0001 -29.7,3.5714 -67.275,8.0701 -83.5,9.9971 -16.225,1.927 -58.075,7.0727 -93,11.435 -196.8067,24.5818 -270.2732,31.7299 -405.5,39.4539 C 702.8292,1934.3867 365.87245,1898.7897 68,1796.2485 26.36188,1781.9148 21.197625,1778.5057 24.174921,1767.3187 27.78452,1753.7558 45.75136,1750.5558 102.5,1753.3688 c 17.6,0.8724 46.4,2.1336 64,2.8027 43.14152,1.6401 207.73554,1.6819 247.5,0.063 16.775,-0.6831 43.55,-1.7085 59.5,-2.2787 15.95,-0.5703 51.05,-2.1585 78,-3.5293 102.45195,-5.2114 189.84626,-11.461 341.5,-24.4209 64.01867,-5.4709 172.8077,-15.1867 286,-25.5422 287.4765,-26.3003 322.8548,-29.3031 405.5,-34.418 58.0241,-3.591 88.8338,-5.0244 175,-8.1417 361.075,-13.0629 721.5898,19.8118 984,89.7291 43.3199,11.5423 91.913,25.5988 96.59,27.9406 17.09,8.557 13.6765,22.4635 -7.4871,30.5026 -14.9552,5.6808 -10.0651,7.1295 36.8971,10.9313 150.6489,12.1956 313.8731,36.6983 440.5,66.1265 108.8718,25.3018 267.3647,73.5451 276.7558,84.2409 15.7872,17.9807 -12.731,30.295 -58.2558,25.1553 -87.9337,-9.9278 -181.7922,-17.2763 -188.4687,-14.7559 -3.3407,1.2611 3.4094,2.1877 52.9687,7.2705 117.4854,12.0494 210.2878,28.282 323.4352,56.5739 46.0207,11.5073 53.0679,15.2722 50.1735,26.8045 -3.3701,13.4275 -20.4535,17.6194 -61.6447,15.1264 -260.8882,-15.7895 -460.8728,9.5499 -1028.464,130.313 -219.5396,46.7102 -361.3454,65.7761 -551.5,74.1494 -31.169,1.3725 -127.5804,1.9995 -156,1.0146 z"
         id="path7" />
      <path
         style="fill:#367ee5"
         d="m 2003.5,2286.2992 c -174.2868,-1.9095 -343.7342,-26.4149 -496,-71.7312 -77.6898,-23.1216 -77.5961,-23.0804 -75.1006,-33.023 2.5908,-10.3226 18.7223,-13.4614 69.6006,-13.5427 87.5849,-0.14 162.2858,-4.1083 264,-14.0245 155.2494,-15.1354 263.848,-31.6887 679.5,-103.5738 240.9891,-41.678 336.1595,-54.2809 486,-64.3579 183.7797,-12.3595 317.5181,-10.5895 491.5,6.5048 142.9667,14.047 343,56.9949 343,73.6435 0,12.4197 -21.4203,16.4306 -71.5304,13.3941 -82.0356,-4.971 -149.936,-4.8453 -232.9696,0.4316 -188.1204,11.9553 -366.7665,41.31 -754.5,123.9777 -109.931,23.4382 -148.0037,30.997 -206,40.8984 -167.6319,28.6191 -341.7478,43.1094 -497.5,41.403 z M 1106,2161.9234 c -320.70475,-8.8532 -593.7074,-60.1712 -830.5,-156.1142 -17.6,-7.1311 -36.37603,-14.565 -41.72452,-16.5197 -19.95175,-7.2918 -23.73443,-16.716 -9.58694,-23.885 11.43646,-5.7953 21.67468,-6.3405 73.81146,-3.9306 176.1933,8.1444 298.47302,6.5827 510.5,-6.5199 133.36157,-8.2413 297.6928,-23.3405 522,-47.9628 24.75,-2.7168 53.775,-5.859 64.5,-6.9826 20.8628,-2.1858 139.6232,-15.6127 239.5,-27.0775 33.55,-3.8512 78.55,-8.9901 100,-11.4197 21.45,-2.4297 66.9,-7.5789 101,-11.4427 206.5646,-23.4057 334.5244,-33.5732 497.5,-39.5304 473.7086,-17.3154 859.5903,26.9858 1193,136.9625 20.625,6.8032 40.875,13.3485 45,14.545 36.5539,10.6034 14.3773,32.3981 -28.6761,28.1825 -6.5032,-0.6368 -29.5989,-3.1764 -51.3239,-5.6435 -132.9244,-15.0953 -261.0912,-19.8147 -397.5,-14.637 -14.85,0.5637 -40.5,1.5012 -57,2.0835 -217.1871,7.6645 -509.9341,42.3122 -1060,125.4551 -166.8052,25.2128 -245.7938,35.3126 -359.5,45.9675 -170.2379,15.9521 -357.2874,22.7128 -511,18.4695 z M 810.81252,1913.0076 C 533.45337,1907.0835 294.69124,1869.6075 88.5,1799.6338 26.115159,1778.4626 25,1777.9492 25,1770.3999 c 0,-13.487 17.4361,-16.4375 80,-13.5376 94.95675,4.4013 251.00357,5.4766 323.5,2.2293 12.65,-0.5666 36.5,-1.5012 53,-2.0768 31.35166,-1.0937 114.54194,-5.2555 139.5,-6.9789 7.975,-0.5506 22.375,-1.4801 32,-2.0655 101.22888,-6.1563 247.60047,-18.6576 661,-56.4544 226.7263,-20.7294 288.9584,-24.8705 462,-30.7431 379.6543,-12.8844 737.1699,23.947 1021.5,105.2352 13.2,3.7738 27.5972,7.8224 31.9937,8.9969 21.996,5.8761 26.9161,16.2659 11.3165,23.8974 -12.7562,6.2405 -22.2187,6.4695 -68.3327,1.6536 -57.0336,-5.9562 -96.1108,-9.0485 -159.4775,-12.6196 -59.3009,-3.3421 -216.68,-1.7898 -312,3.0773 -140.6355,7.181 -355.3014,26.8888 -555,50.9529 -13.475,1.6237 -43.85,5.2526 -67.5,8.064 -23.65,2.8115 -79.45,9.5647 -124,15.0072 -212.5384,25.9647 -290.4419,33.6925 -412.5,40.9192 -106.9289,6.331 -236.11689,9.0812 -331.18748,7.0506 z"
         id="path6" />
      <path
         style="fill:#2659a1"
         d="m 2003.5,2286.2992 c -174.2868,-1.9095 -343.7342,-26.4149 -496,-71.7312 -77.6898,-23.1216 -77.5961,-23.0804 -75.1006,-33.023 2.5908,-10.3226 18.7223,-13.4614 69.6006,-13.5427 87.5849,-0.14 162.2858,-4.1083 264,-14.0245 155.2494,-15.1354 263.848,-31.6887 679.5,-103.5738 240.9891,-41.678 336.1595,-54.2809 486,-64.3579 183.7797,-12.3595 317.5181,-10.5895 491.5,6.5048 142.9667,14.047 343,56.9949 343,73.6435 0,12.4197 -21.4203,16.4306 -71.5304,13.3941 -82.0356,-4.971 -149.936,-4.8453 -232.9696,0.4316 -188.1204,11.9553 -366.7665,41.31 -754.5,123.9777 -109.931,23.4382 -148.0037,30.997 -206,40.8984 -167.6319,28.6191 -341.7478,43.1094 -497.5,41.403 z m 87.5,-17.3105 c 176.303,-4.9216 343.4357,-25.4893 533,-65.5919 19.525,-4.1306 49,-10.3866 65.5,-13.9024 523.5594,-111.5579 768.2818,-142.7602 996,-126.9908 35.9292,2.4881 35.1971,1.9835 -14.5,-9.9926 -105.1029,-25.3279 -191.7853,-38.7354 -326.5,-50.5012 -129.4975,-11.31 -328.7432,-8.2634 -493.5,7.5462 -118.6732,11.3875 -189.8833,21.2448 -335.5,46.4418 -86.3417,14.9402 -146.8322,25.4163 -187.5,32.4724 -49.963,8.6688 -197.8466,33.2985 -243,40.4711 -238.5257,37.8897 -410.4783,54.7184 -563.5,55.1484 -48.1553,0.1354 -48.3757,0.1816 -29.5,6.1799 104.2264,33.1209 208.4375,55.2041 317,67.175 58.611,6.4629 105.9479,9.9646 160.5,11.873 21.2162,0.7423 89.7788,0.5567 121.5,-0.3289 z m -985,-107.0653 c -320.70475,-8.8532 -593.7074,-60.1712 -830.5,-156.1142 -17.6,-7.1311 -36.37603,-14.565 -41.72452,-16.5197 -19.95175,-7.2918 -23.73443,-16.716 -9.58694,-23.885 11.43646,-5.7953 21.67468,-6.3405 73.81146,-3.9306 176.1933,8.1444 298.47302,6.5827 510.5,-6.5199 133.36157,-8.2413 297.6928,-23.3405 522,-47.9628 24.75,-2.7168 53.775,-5.859 64.5,-6.9826 20.8628,-2.1858 139.6232,-15.6127 239.5,-27.0775 33.55,-3.8512 78.55,-8.9901 100,-11.4197 21.45,-2.4297 66.9,-7.5789 101,-11.4427 206.5646,-23.4057 334.5244,-33.5732 497.5,-39.5304 473.7086,-17.3154 859.5903,26.9858 1193,136.9625 20.625,6.8032 40.875,13.3485 45,14.545 36.5539,10.6034 14.3773,32.3981 -28.6761,28.1825 -6.5032,-0.6368 -29.5989,-3.1764 -51.3239,-5.6435 -132.9244,-15.0953 -261.0912,-19.8147 -397.5,-14.637 -14.85,0.5637 -40.5,1.5012 -57,2.0835 -217.1871,7.6645 -509.9341,42.3122 -1060,125.4551 -166.8052,25.2128 -245.7938,35.3126 -359.5,45.9675 -170.2379,15.9521 -357.2874,22.7128 -511,18.4695 z m 223.5,-16.891 c 210.4593,-7.3828 373.2063,-23.248 616,-60.05 636.688,-96.5076 878.695,-123.7689 1180.5,-132.9794 127.6152,-3.8945 262.8035,2.713 399.4701,19.5245 6.5836,0.8099 12.2086,1.4588 12.5,1.4421 5.6194,-0.3225 -78.6026,-27.6169 -132.9701,-43.0925 -209.3756,-59.5986 -460.5591,-95.3504 -729.5,-103.8323 -17.6,-0.5551 -38.075,-1.2637 -45.5,-1.5747 -49.0667,-2.0555 -252.1452,0.172 -324,3.5538 -178.3326,8.393 -300.0098,18.7634 -510,43.4665 -20.625,2.4263 -53.7,6.236 -73.5,8.466 -19.8,2.2301 -55.8,6.3168 -80,9.0816 -326.332,37.2831 -470.9173,52.7127 -617.5,65.8973 -115.36258,10.3765 -191.66552,15.9943 -265.5,19.5476 -17.6,0.847 -39.425,1.9856 -48.5,2.5302 -128.50833,7.7118 -325.07717,7.4906 -443.75,-0.4995 -8.58277,-0.5778 -9.19547,0.4335 -2,3.3012 2.8875,1.1508 9.75,3.961 15.25,6.2449 109.77468,45.5844 222.09086,80.2084 342,105.4292 27.79599,5.8464 70.58296,13.8594 88,16.4802 7.7,1.1587 21.875,3.4248 31.5,5.0359 96.3035,16.1195 226.09985,28.1924 344,31.997 18.425,0.5945 38,1.2264 43.5,1.4041 20.7209,0.6695 171.223,-0.3642 200,-1.3737 z M 810.81252,1913.0076 C 533.45337,1907.0835 294.69124,1869.6075 88.5,1799.6338 26.115159,1778.4626 25,1777.9492 25,1770.3999 c 0,-13.487 17.4361,-16.4375 80,-13.5376 94.95675,4.4013 251.00357,5.4766 323.5,2.2293 12.65,-0.5666 36.5,-1.5012 53,-2.0768 31.35166,-1.0937 114.54194,-5.2555 139.5,-6.9789 7.975,-0.5506 22.375,-1.4801 32,-2.0655 101.22888,-6.1563 247.60047,-18.6576 661,-56.4544 226.7263,-20.7294 288.9584,-24.8705 462,-30.7431 379.6543,-12.8844 737.1699,23.947 1021.5,105.2352 13.2,3.7738 27.5972,7.8224 31.9937,8.9969 21.996,5.8761 26.9161,16.2659 11.3165,23.8974 -12.7562,6.2405 -22.2187,6.4695 -68.3327,1.6536 -57.0336,-5.9562 -96.1108,-9.0485 -159.4775,-12.6196 -59.3009,-3.3421 -216.68,-1.7898 -312,3.0773 -140.6355,7.181 -355.3014,26.8888 -555,50.9529 -13.475,1.6237 -43.85,5.2526 -67.5,8.064 -23.65,2.8115 -79.45,9.5647 -124,15.0072 -212.5384,25.9647 -290.4419,33.6925 -412.5,40.9192 -106.9289,6.331 -236.11689,9.0812 -331.18748,7.0506 z M 1028,1895.0868 c 173.6518,-7.0323 277.098,-16.1136 502,-44.0697 371.4119,-46.1677 628.1295,-71.0661 804,-77.9782 174.554,-6.8604 300.3037,-3.9491 432.8905,10.0218 25.8493,2.7238 32.5447,3.1079 27.4349,1.5739 -314.6015,-94.4425 -714.1778,-127.8103 -1192.8254,-99.6104 -71.8392,4.2324 -140.9561,9.8511 -283.5,23.0463 -472.80967,43.7677 -654.75691,58.2159 -811,64.4008 -21.175,0.8383 -49.975,1.9779 -64,2.5325 -105.99337,4.1919 -227.16744,3.6294 -333.5,-1.5483 -34.590216,-1.6842 -40.645154,-1.7673 -38.5,-0.5283 2.548426,1.472 37.21739,13.4003 63.83089,21.9618 186.20258,59.9011 403.48518,93.6359 651.16911,101.0989 35.76095,1.0776 209.07648,0.4322 242,-0.9011 z"
         id="path5" />
      <path
         style="fill:#606060"
         d="m 2003.5,2286.2992 c -174.2868,-1.9095 -343.7342,-26.4149 -496,-71.7312 -77.6898,-23.1216 -77.5961,-23.0804 -75.1006,-33.023 2.5908,-10.3226 18.7223,-13.4614 69.6006,-13.5427 87.5849,-0.14 162.2858,-4.1083 264,-14.0245 155.2494,-15.1354 263.848,-31.6887 679.5,-103.5738 240.9891,-41.678 336.1595,-54.2809 486,-64.3579 183.7797,-12.3595 317.5181,-10.5895 491.5,6.5048 142.9667,14.047 343,56.9949 343,73.6435 0,12.4197 -21.4203,16.4306 -71.5304,13.3941 -82.0356,-4.971 -149.936,-4.8453 -232.9696,0.4316 -188.1204,11.9553 -366.7665,41.31 -754.5,123.9777 -109.931,23.4382 -148.0037,30.997 -206,40.8984 -167.6319,28.6191 -341.7478,43.1094 -497.5,41.403 z m 128.5,-17.265 c 177.6228,-8.4484 317.8975,-27.3347 516.5,-69.5402 182.2509,-38.7307 258.6614,-54.4049 353,-72.4117 114.491,-21.8534 224.4932,-39.3378 308.5,-49.0348 34.5319,-3.9861 53.6524,-5.7784 134,-12.5609 59.7632,-5.0448 187.458,-5.8221 247,-1.5034 27.9918,2.0303 31,2.1494 31,1.2271 0,-1.1874 -26.4362,-8.2851 -62,-16.646 -133.6319,-31.4165 -273.2952,-48.8457 -430,-53.6618 -41.9409,-1.289 -157.8333,-0.6728 -196,1.0421 -137.0045,6.1559 -254.4429,17.4168 -387.3222,37.1395 -42.3058,6.2792 -112.0772,18.1056 -282.6778,47.9143 -435.5878,76.1094 -650.9073,101.9053 -851.5,102.012 -21.5866,0.012 -38.6333,0.4207 -39.4661,0.9475 -1.8518,1.1712 -2.0978,1.0772 24.5277,9.374 146.0116,45.499 280.9529,68.2806 453.9384,76.6365 23.2093,1.1211 151.2176,0.4586 180.5,-0.9342 z M 1106,2161.9234 c -320.70475,-8.8532 -593.7074,-60.1712 -830.5,-156.1142 -17.6,-7.1311 -36.37603,-14.565 -41.72452,-16.5197 -19.95175,-7.2918 -23.73443,-16.716 -9.58694,-23.885 11.43646,-5.7953 21.67468,-6.3405 73.81146,-3.9306 176.1933,8.1444 298.47302,6.5827 510.5,-6.5199 133.36157,-8.2413 297.6928,-23.3405 522,-47.9628 24.75,-2.7168 53.775,-5.859 64.5,-6.9826 20.8628,-2.1858 139.6232,-15.6127 239.5,-27.0775 33.55,-3.8512 78.55,-8.9901 100,-11.4197 21.45,-2.4297 66.9,-7.5789 101,-11.4427 206.5646,-23.4057 334.5244,-33.5732 497.5,-39.5304 473.7086,-17.3154 859.5903,26.9858 1193,136.9625 20.625,6.8032 40.875,13.3485 45,14.545 36.5539,10.6034 14.3773,32.3981 -28.6761,28.1825 -6.5032,-0.6368 -29.5989,-3.1764 -51.3239,-5.6435 -132.9244,-15.0953 -261.0912,-19.8147 -397.5,-14.637 -14.85,0.5637 -40.5,1.5012 -57,2.0835 -217.1871,7.6645 -509.9341,42.3122 -1060,125.4551 -166.8052,25.2128 -245.7938,35.3126 -359.5,45.9675 -170.2379,15.9521 -357.2874,22.7128 -511,18.4695 z m 232.5,-15.8451 c 62.5867,-2.5077 79.2671,-3.3114 117,-5.6373 167.3135,-10.3135 291.3076,-24.0099 488.5,-53.9596 567.0702,-86.1272 865.2474,-121.6479 1091,-129.9666 8.525,-0.3142 33.5,-1.2868 55.5,-2.1614 146.5475,-5.8262 296.1402,0.8909 450.75,20.2398 4.6093,0.5769 6.7485,-0.7646 3,-1.8812 -0.9625,-0.2868 -14.575,-4.8778 -30.25,-10.2023 -388.1643,-131.8531 -883.4052,-170.8146 -1487,-116.9851 -53.0093,4.7274 -148.2083,14.9785 -254.5,27.4045 -18.7,2.1862 -54.475,6.266 -79.5,9.0663 -25.025,2.8002 -70.475,7.9737 -101,11.4966 -91.3882,10.5471 -302.0841,34.0231 -340.5,37.939 -8.25,0.841 -39.075,4.007 -68.5,7.0356 -165.5671,17.0411 -318.62844,29.6385 -419.5,34.526 -12.1,0.5862 -34.15,1.7313 -49,2.5446 -134.83479,7.3842 -290.4956,7.9579 -411,1.5148 -54.7715,-2.9285 -54.84509,-2.9197 -37.25,4.4687 176.40605,74.0757 345.49598,117.7774 560.75,144.9273 86.16849,10.8684 168.86608,16.8219 291,20.9492 20.8632,0.7051 196.1552,-0.3434 220.5,-1.3189 z M 810.81252,1913.0076 C 533.45337,1907.0835 294.69124,1869.6075 88.5,1799.6338 26.115159,1778.4626 25,1777.9492 25,1770.3999 c 0,-13.487 17.4361,-16.4375 80,-13.5376 94.95675,4.4013 251.00357,5.4766 323.5,2.2293 12.65,-0.5666 36.5,-1.5012 53,-2.0768 31.35166,-1.0937 114.54194,-5.2555 139.5,-6.9789 7.975,-0.5506 22.375,-1.4801 32,-2.0655 101.22888,-6.1563 247.60047,-18.6576 661,-56.4544 226.7263,-20.7294 288.9584,-24.8705 462,-30.7431 379.6543,-12.8844 737.1699,23.947 1021.5,105.2352 13.2,3.7738 27.5972,7.8224 31.9937,8.9969 21.996,5.8761 26.9161,16.2659 11.3165,23.8974 -12.7562,6.2405 -22.2187,6.4695 -68.3327,1.6536 -57.0336,-5.9562 -96.1108,-9.0485 -159.4775,-12.6196 -59.3009,-3.3421 -216.68,-1.7898 -312,3.0773 -140.6355,7.181 -355.3014,26.8888 -555,50.9529 -13.475,1.6237 -43.85,5.2526 -67.5,8.064 -23.65,2.8115 -79.45,9.5647 -124,15.0072 -212.5384,25.9647 -290.4419,33.6925 -412.5,40.9192 -106.9289,6.331 -236.11689,9.0812 -331.18748,7.0506 z M 1001.5,1896.9958 c 164.5146,-4.3508 289.4921,-15.0504 542.5645,-46.4502 11.2395,-1.3945 35.5105,-4.3548 53.9355,-6.5784 18.425,-2.2236 49.925,-6.0305 70,-8.4596 249.898,-30.2386 477.065,-51.7725 627.5,-59.4829 121.7299,-6.2391 283.4543,-6.4705 368,-0.5264 44.9872,3.1629 84.8035,6.697 124.3454,11.037 25.7387,2.8249 24.1213,1.7138 -12.8454,-8.8245 -61.9954,-17.6735 -104.6166,-28.2275 -166,-41.1055 -136.1115,-28.5558 -302.8652,-48.8257 -469.5,-57.0705 -223.6811,-11.0674 -467.9795,-4.9719 -719,17.9397 -14.85,1.3554 -35.1,3.1681 -45,4.0281 -9.9,0.86 -41.85,3.7831 -71,6.4957 -29.15,2.7126 -60.65,5.625 -70,6.472 -9.35,0.8471 -61.325,5.578 -115.5,10.5132 -544.59116,49.6106 -758.26841,59.312 -1024.970236,46.5354 -37.391981,-1.7913 -37.260391,-1.8675 -12.029764,6.9657 259.74065,90.9343 549.60223,128.2936 919.5,118.5112 z"
         id="path4" />
      <path
         style="fill:#143059"
         d="m 1972.4598,2284.018 c -178.9832,-5.8624 -324.4974,-28.7182 -477.9598,-75.0728 -14.85,-4.4856 -33.075,-9.9415 -40.5,-12.1242 -18.3375,-5.3908 -23.783,-9.9247 -19.5956,-16.3154 4.7339,-7.2248 15.2515,-9.6419 44.0956,-10.1335 128.1889,-2.1849 165.4392,-3.7899 242,-10.4266 68.4053,-5.9297 134.6039,-13.2941 202.5,-22.5275 108.6015,-14.769 214.4648,-32.0644 532,-86.9155 207.0324,-35.7628 290.3202,-47.3216 417.5,-57.9416 206.6759,-17.2582 368.6106,-16.6732 553,1.9976 91.9626,9.312 196.3935,28.0098 288.5,51.6546 12.925,3.318 27.2006,6.8552 31.7235,7.8604 28.4772,6.3294 23.0832,22.0626 -8.7235,25.4451 -3.025,0.3217 -20.575,-0.3341 -39,-1.4573 -112.3569,-6.8495 -201.4884,-4.6066 -337.5,8.4929 -144.3858,13.9061 -328.2757,46.414 -648,114.553 -182.3163,38.8549 -253.8043,51.3026 -375.5,65.3832 -120.2603,13.9145 -263.938,20.8227 -364.5402,17.5276 z M 2132,2269.0342 c 177.6228,-8.4484 317.8975,-27.3347 516.5,-69.5402 182.2509,-38.7307 258.6614,-54.4049 353,-72.4117 114.491,-21.8534 224.4932,-39.3378 308.5,-49.0348 34.5319,-3.9861 53.6524,-5.7784 134,-12.5609 59.7632,-5.0448 187.458,-5.8221 247,-1.5034 27.9918,2.0303 31,2.1494 31,1.2271 0,-1.1874 -26.4362,-8.2851 -62,-16.646 -133.6319,-31.4165 -273.2952,-48.8457 -430,-53.6618 -41.9409,-1.289 -157.8333,-0.6728 -196,1.0421 -137.0045,6.1559 -254.4429,17.4168 -387.3222,37.1395 -42.3058,6.2792 -112.0772,18.1056 -282.6778,47.9143 -435.5878,76.1094 -650.9073,101.9053 -851.5,102.012 -21.5866,0.012 -38.6333,0.4207 -39.4661,0.9475 -1.8518,1.1712 -2.0978,1.0772 24.5277,9.374 146.0116,45.499 280.9529,68.2806 453.9384,76.6365 23.2093,1.1211 151.2176,0.4586 180.5,-0.9342 z m -988,-108.1366 c -335.58218,-5.3762 -622.08841,-56.9857 -866.5,-156.086 -17.6,-7.1361 -36.50574,-14.6256 -42.01275,-16.6432 -16.61845,-6.0885 -20.79806,-9.9607 -17.36111,-16.0841 5.56243,-9.9101 23.22183,-11.6746 86.37386,-8.6301 72.34461,3.4877 98.843,4.0455 191.5,4.0315 106.55384,-0.016 131.2623,-0.764 265,-8.0206 143.16789,-7.7683 306.3136,-22.1637 544.5,-48.0448 33,-3.5857 70.575,-7.6412 83.5,-9.0121 12.925,-1.3709 82.675,-9.2341 155,-17.4737 72.325,-8.2397 153.1,-17.4358 179.5,-20.4359 26.4,-3 63.75,-7.2472 83,-9.4382 203.8984,-23.2075 299.9598,-31.7178 440.5,-39.025 511.2637,-26.5822 926.7472,16.9458 1283,134.4132 20.625,6.8007 40.7125,13.3046 44.6389,14.4532 19.3983,5.6745 17.1971,17.658 -4.1612,22.6534 -10.2185,2.3899 -27.119,1.4864 -72.9777,-3.9016 -83.4443,-9.8039 -145.9658,-14.3311 -231.5,-16.7631 -74.8735,-2.1289 -200.5504,0.6646 -299.5,6.6571 -219.5332,13.2952 -487.3512,46.1569 -961.532,117.9815 -318.8155,48.2912 -486.0858,64.1795 -731.4568,69.4778 -49.5889,1.0708 -56.1994,1.0653 -129.5112,-0.1093 z m 194.5,-14.8193 c 62.5867,-2.5077 79.2671,-3.3114 117,-5.6373 167.3135,-10.3135 291.3076,-24.0099 488.5,-53.9596 567.0702,-86.1272 865.2474,-121.6479 1091,-129.9666 8.525,-0.3142 33.5,-1.2868 55.5,-2.1614 146.5475,-5.8262 296.1402,0.8909 450.75,20.2398 4.6093,0.5769 6.7485,-0.7646 3,-1.8812 -0.9625,-0.2868 -14.575,-4.8778 -30.25,-10.2023 -388.1643,-131.8531 -883.4052,-170.8146 -1487,-116.9851 -53.0093,4.7274 -148.2083,14.9785 -254.5,27.4045 -18.7,2.1862 -54.475,6.266 -79.5,9.0663 -25.025,2.8002 -70.475,7.9737 -101,11.4966 -91.3882,10.5471 -302.0841,34.0231 -340.5,37.939 -8.25,0.841 -39.075,4.007 -68.5,7.0356 -165.5671,17.0411 -318.62844,29.6385 -419.5,34.526 -12.1,0.5862 -34.15,1.7313 -49,2.5446 -134.83479,7.3842 -290.4956,7.9579 -411,1.5148 -54.7715,-2.9285 -54.84509,-2.9197 -37.25,4.4687 176.40605,74.0757 345.49598,117.7774 560.75,144.9273 86.16849,10.8684 168.86608,16.8219 291,20.9492 20.8632,0.7051 196.1552,-0.3434 220.5,-1.3189 z M 812,1911.3322 c -206.04922,-3.8794 -401.91462,-27.4993 -570,-68.7377 -61.70824,-15.1396 -176.4252,-50.1844 -207.312685,-63.3319 -12.450873,-5.2998 -10.365028,-14.7471 4.280116,-19.3856 9.481658,-3.0032 23.588395,-3.347 61.532569,-1.4997 18.15,0.8836 46.95,2.1569 64,2.8296 42.36755,1.6715 211.43537,1.6856 252,0.021 17.05,-0.6996 43.6,-1.7174 59,-2.2616 150.48372,-5.3183 307.57033,-17.2259 698.5,-52.9479 54.175,-4.9504 125.725,-11.4723 159,-14.4932 33.275,-3.0208 67.925,-6.1742 77,-7.0075 50.2771,-4.6163 116.2397,-9.6895 168.5,-12.9592 66.7303,-4.1751 88.6065,-5.2024 184,-8.641 181.4951,-6.5421 416.6374,1.0011 580.5,18.622 183.5996,19.7434 319.8941,46.581 492.5,96.9778 18.6347,5.4409 17.0925,16.6109 -3.0363,21.9907 -9.0369,2.4153 -24.5495,2.036 -56.9637,-1.3927 -257.0145,-27.1866 -505.3939,-18.3845 -971.5,34.4281 -21.725,2.4616 -48.725,5.5944 -60,6.9618 -11.275,1.3674 -45.025,5.3969 -75,8.9545 -29.975,3.5577 -85.9158,10.3167 -124.313,15.0201 -175.4824,21.4954 -239.0846,28.1617 -338.187,35.4463 -131.3717,9.6566 -271.78886,13.7165 -394.5,11.4061 z m 189.5,-14.3364 c 164.5146,-4.3508 289.4921,-15.0504 542.5645,-46.4502 11.2395,-1.3945 35.5105,-4.3548 53.9355,-6.5784 18.425,-2.2236 49.925,-6.0305 70,-8.4596 249.898,-30.2386 477.065,-51.7725 627.5,-59.4829 121.7299,-6.2391 283.4543,-6.4705 368,-0.5264 44.9872,3.1629 84.8035,6.697 124.3454,11.037 25.7387,2.8249 24.1213,1.7138 -12.8454,-8.8245 -61.9954,-17.6735 -104.6166,-28.2275 -166,-41.1055 -136.1115,-28.5558 -302.8652,-48.8257 -469.5,-57.0705 -223.6811,-11.0674 -467.9795,-4.9719 -719,17.9397 -14.85,1.3554 -35.1,3.1681 -45,4.0281 -9.9,0.86 -41.85,3.7831 -71,6.4957 -29.15,2.7126 -60.65,5.625 -70,6.472 -9.35,0.8471 -61.325,5.578 -115.5,10.5132 -544.59116,49.6106 -758.26841,59.312 -1024.970236,46.5354 -37.391981,-1.7913 -37.260391,-1.8675 -12.029764,6.9657 259.74065,90.9343 549.60223,128.2936 919.5,118.5112 z"
         id="path3" />
      <path
         style="fill:#050608"
         d="m 1959,2282.99 c -186.9986,-8.132 -317.7906,-29.8107 -481.5,-79.8084 -14.3,-4.3673 -27.575,-8.2739 -29.5,-8.6815 -11.5106,-2.4369 -17.3353,-10.0181 -11.7375,-15.2769 7.9007,-7.4224 13.6233,-8.0085 89.7375,-9.1919 93.9992,-1.4613 146.3686,-4.4792 244,-14.0609 151.4383,-14.8624 262.2837,-31.7707 668.5,-101.9729 283.8393,-49.053 384.8779,-61.0412 600,-71.1892 35.3294,-1.6666 188.2779,-1.677 224,-0.015 26.6518,1.2399 67.3308,3.6698 79,4.719 3.3,0.2967 18.6,1.6613 34,3.0325 126.1909,11.2356 215.1508,25.8684 331.5,54.5278 50.5332,12.4474 47.5734,11.6169 52.1181,14.6245 8.4864,5.616 5.5471,11.766 -7.8294,16.3816 -8.5705,2.9573 -20.7618,3.3298 -50.2887,1.5364 -253.5364,-15.3996 -462.6868,10.8935 -1005.5,126.405 -109.2871,23.2565 -144.2739,30.1334 -203,39.9012 -106.6296,17.7354 -198.4219,28.2543 -310.5,35.5813 -52.6651,3.443 -178.6994,5.414 -223,3.4876 z m 108,-10.9996 c 184.2961,-3.8801 357.7141,-24.0331 543,-63.1023 39.7685,-8.3855 71.5425,-15.1069 129.5,-27.394 349.9332,-74.1866 520.7371,-101.7442 715.5,-115.4391 67.5153,-4.7473 177.9616,-5.2482 231,-1.0476 36.3203,2.8766 52.4387,2.1635 37.923,-1.6779 -129.5691,-34.2883 -242.7045,-53.1538 -385.423,-64.2696 -86.3912,-6.7287 -225.3136,-8.2605 -322,-3.5503 -99.2694,4.8359 -193.0329,12.9174 -284.5,24.521 -67.7308,8.5924 -119.8547,16.6752 -225.5,34.9681 -15.95,2.7618 -56.45,9.7691 -90,15.5717 -33.55,5.8026 -70.9,12.2916 -83,14.42 -250.7494,44.1063 -426.1229,69.6464 -584,85.0495 -75.7306,7.3885 -170.8687,11.9051 -251.6276,11.9457 -37.6706,0.019 -38.3759,0.5334 -12.191,8.8916 160.2076,51.1384 323.4833,77.5065 504.3186,81.4448 6.325,0.1378 15.775,0.3398 21,0.449 5.225,0.1091 30.425,-0.2421 56,-0.7806 z M 1120.5,2159.9246 C 955.37343,2155.738 832.39711,2143.931 678,2117.4398 c -135.47781,-23.245 -276.3801,-63.0524 -400,-113.0071 -27.46325,-11.0979 -42.27128,-16.9568 -50,-19.783 -18.43565,-6.7413 -11.4625,-18.2736 13.10819,-21.6784 8.65045,-1.1987 10.32804,-1.162 70.89181,1.5511 157.65183,7.0624 295.18997,5.2117 486,-6.5393 158.65941,-9.771 327.0948,-25.6251 633,-59.5816 36.5802,-4.0605 46.3604,-5.1697 158,-17.9182 45.925,-5.2443 105.1,-11.9886 131.5,-14.9872 26.4,-2.9986 63.75,-7.2447 83,-9.4357 152.6127,-17.3702 204.8584,-22.6375 292.8392,-29.5234 574.0541,-44.9288 1041.3943,-4.2507 1434.6608,124.8756 20.625,6.7721 40.0266,13.0534 43.1146,13.9586 12.4963,3.6627 16.7524,10.6475 9.6902,15.9025 -11.0279,8.2059 -29.6449,8.5184 -88.8048,1.4907 -138.7055,-16.4773 -250.2622,-20.377 -422.5,-14.7694 -241.3118,7.8564 -521.1003,40.0743 -1069,123.0962 -188.0792,28.4992 -268.1739,38.8624 -385.5,49.8785 -168.7701,15.8463 -349.1072,22.7172 -497.5,18.9549 z m 191,-11.936 c 207.2944,-5.8753 385.2983,-22.7559 627.5,-59.5074 589.5827,-89.463 878.5304,-123.5091 1116,-131.4957 16.775,-0.5641 41.525,-1.4525 55,-1.9741 125.9481,-4.8752 275.9808,2.0011 415.4427,19.0407 21.6268,2.6424 32.1312,2.4118 24.8073,-0.5445 -58.4907,-23.6103 -219.1923,-68.206 -317.2314,-88.0338 -389.3572,-78.7449 -835.8853,-85.4427 -1398.0186,-20.9699 -26.125,2.9964 -73.375,8.3908 -105,11.9877 -31.625,3.5968 -80.9,9.2293 -109.5,12.5167 -288.1854,33.1245 -457.6692,51.0936 -613,64.9919 -94.46621,8.4524 -185.53089,15.0509 -248.5,18.006 -11.825,0.555 -33.875,1.6876 -49,2.517 -123.72683,6.7849 -280.98067,7.3501 -401.5,1.4431 -64.69176,-3.1708 -65.80471,-3.0418 -46,5.3293 58.4875,24.7216 140.3578,54.6329 188.33361,68.8076 99.88133,29.5104 176.68725,47.1845 269.16639,61.9388 56.39821,8.9978 62.15916,9.8598 89.5,13.3915 130.44145,16.8496 234.2484,23.127 387,23.4027 44,0.079 95.75,-0.302 115,-0.8476 z m -515,-237.659 c -180.05378,-3.6069 -367.85837,-25.4845 -523,-60.9252 -99.12346,-22.6438 -243.821481,-67.8685 -246.091973,-76.9148 -3.31337,-13.2015 16.326433,-16.3198 82.091973,-13.0341 79.22654,3.9583 228.44185,5.3488 297,2.7676 17.6,-0.6627 44.825,-1.6828 60.5,-2.267 114.10189,-4.2524 242.55712,-12.559 393.5,-25.4458 100.63913,-8.5921 337.152,-29.7297 414,-36.9999 14.3,-1.3529 41.075,-3.8112 59.5,-5.463 18.425,-1.6517 38.45,-3.4626 44.5,-4.0241 522.2393,-48.4697 961.4626,-31.0445 1311.671,52.0376 35.7991,8.4928 88.5261,22.6854 145.2308,39.092 11.77,3.4054 15.85,9.9331 9.5317,15.2496 -9.3565,7.8729 -26.7393,8.7814 -72.4335,3.7856 -134.5118,-14.7064 -235.2129,-17.6885 -409.5,-12.1265 -154.2185,4.9216 -367.1983,23.7608 -650,57.496 -29.975,3.5757 -61.925,7.3761 -71,8.4454 -16.4341,1.9365 -80.3338,9.7193 -135.5,16.5036 -282.3447,34.7225 -480.8209,46.4139 -710,41.823 z m 215,-12.3003 c 146.7465,-4.477 279.9321,-15.2685 458,-37.1098 35.75,-4.3851 85.475,-10.4429 110.5,-13.4619 25.025,-3.0191 52.475,-6.3722 61,-7.4514 131.5344,-16.6512 368.9276,-41.6446 489,-51.4832 111.6726,-9.1503 165.6099,-12.03 292.8583,-15.6357 66.4562,-1.883 184.3432,-0.097 236.6417,3.5861 41.279,2.9067 78.4645,5.9353 92.5,7.5337 71.2,8.1082 75.0436,7.4962 31.8193,-5.0665 -198.8455,-57.7924 -421.5232,-91.5717 -671.8193,-101.9125 -245.9086,-10.1595 -453.1373,-2.9608 -778,27.026 -502.06698,46.3438 -673.52405,60.0242 -826,65.9054 -121.60673,4.6906 -136.10529,5.0374 -210.5,5.0349 -84.49823,0 -119.81347,-0.8983 -223.75,-5.6737 -15.191304,-0.698 -18.571428,0.7497 -9.5,4.069 218.10996,79.8059 459.45215,119.7031 762.25,126.0105 27.40373,0.5708 151.49452,-0.3487 185,-1.3709 z"
         id="path2" />
    </g>
  </g>
</svg>
